<!-- public/assets/icons/icons.svg -->
<svg xmlns="http://www.w3.org/2000/svg" style="display:none">
  <symbol id="icon-drag" viewBox="0 0 24 24" fill="none" stroke="currentColor" stroke-width="1.6" stroke-linecap="round" stroke-linejoin="round">
    <path d="M10 6h8M10 12h8M10 18h8"/>
  </symbol>

  <symbol id="icon-edit" viewBox="0 0 24 24" fill="currentColor">
    <path d="M3 21l3-1 11-11 1-3-3 1L4 20z"/>
  </symbol>

  <symbol id="icon-delete" viewBox="0 0 24 24" fill="none" stroke="currentColor" stroke-width="1.6" stroke-linecap="round" stroke-linejoin="round">
    <path d="M3 6h18"/>
    <path d="M8 6v12a2 2 0 002 2h4a2 2 0 002-2V6"/>
  </symbol>

  <symbol id="icon-add" viewBox="0 0 24 24" fill="none" stroke="currentColor" stroke-width="2" stroke-linecap="round" stroke-linejoin="round">
    <path d="M12 5v14M5 12h14"/>
  </symbol>

  <symbol id="icon-stats" viewBox="0 0 24 24" fill="currentColor">
    <path d="M3 3v18h18"/>
    <path d="M7 13v6M12 9v10M17 5v14"/>
  </symbol>

  <symbol id="icon-logout" viewBox="0 0 24 24" fill="none" stroke="currentColor" stroke-width="1.6" stroke-linecap="round" stroke-linejoin="round">
    <path d="M9 21H5a2 2 0 01-2-2V5a2 2 0 012-2h4"/>
    <path d="M16 17l5-5-5-5"/>
    <path d="M21 12H9"/>
  </symbol>

  <symbol id="icon-check" viewBox="0 0 24 24" fill="none" stroke="currentColor" stroke-width="2" stroke-linecap="round" stroke-linejoin="round">
    <path d="M20 6L9 17l-5-5"/>
  </symbol>

  <symbol id="icon-close" viewBox="0 0 24 24" fill="none" stroke="currentColor" stroke-width="2" stroke-linecap="round" stroke-linejoin="round">
    <path d="M18 6L6 18M6 6l12 12"/>
  </symbol>
</svg>
